Cast
Balraj Sahni	...	Rajendra
Shyama	...	Shobha
Rehman	...	Shekhar
Nanda	...	Meena
Mehmood	...	Mahesh
Shubha Khote	...	
Sudesh Kumar	...	
Veena	...	
Dhumal	...	Sukhiya
Badri Prasad	...	
Radhakrishan	...	Rajendra's uncle (as Radha Kishan)
Kanchanamala	...	(as Kanchanmala)
Hari Shivdasani	...	(as Hari Sivadasani)
Kunwar Keshav	...	
Kapoor	...	
Fazlu	...	
Munni	...	
Kathana	...	
Crew
L.v. Prasad	...	Director
Lata Mangeshkar	...	Singer
Manna Dey	...	Singer
Asha Bhosle	...	Singer
Mohammad Rafi	...	Singer
Mukesh	...	Singer
Subir Sen	...	Singer
Jaikishan Dayabhai Pankal	...	Music Director
Shankarsinh Raghuwanshi	...	Music Director
Dwarka Divecha	...	Cinematography
Shivaji Avdhut	...	Editor
Inder Raj Anand	...	Dialogue
Inder Raj Anand	...	Screenplay
A.A. Majid	...	Art Director
T.G. Madhu	...	makeup artist
Suryakant	...	assistant makeup artist
Achchan	...	assistant makeup artist
Beurtha Ezeikal	...	hair stylist
Rafique Gwaliori	...	production manager
Trideep Ojha	...	assistant director
Yogesh	...	assistant director
A. Ram Mohan	...	assistant director
Abdul	...	assistant art director
Minoo Katrak	...	sound re-recordist
Minoo Katrak	...	song recordist
S.N. Sharma	...	sound assistant
A.S. Laxmi Narayanan	...	sound assistant
P.R.L. Raman	...	assistant camera
Aziz	...	assistant camera
K. Rai Chowdhury	...	assistant camera
Bashir Ahmed	...	costume in charge
Umakant Nayak	...	assistant editor
Vithal Gosavi	...	assistant editor
R. Hiralal	...	assistant editor
G. Nair	...	driver
Y. Ramchandra Rao	...	production assistant
M.P. Rao	...	production controller
Yashwant Mitkar	...	audiographer
Sebastian D'Souza	...	music assistant
Dattaram	...	music assistant
Jeevankala	...	dances
Sheelavaz	...	dances
Satyanarayan	...	dance director
S.S. Lingayat	...	processing in charge
Janu	...	dress assistant
Minoo Katrak	...	background music recordist
D.O. Bhansali	...	associate sound
Nanakchand	...	helper
Sham Ratan	...	helper





Chhoti Bahen 1959 DvDrip ~ Drama | Family ~ [RdY]



Format                           : AVI
Format/Info                      : Audio Video Interleave
File size                        : 1.36 GiB
Duration                         : 2h 38mn
Overall bit rate                 : 1 233 Kbps
Writing application              : VirtualDubMod 1.5.10.2 (build 2540/release)
Writing library                  : VirtualDubMod build 2540/release

Video
Format                           : MPEG-4 Visual
Format profile                   : Streaming Video@L1
Format settings, BVOP            : Yes
Format settings, QPel            : Yes
Format settings, GMC             : No warppoints
Format settings, Matrix          : Default
Codec ID                         : XVID
Codec ID/Hint                    : XviD
Duration                         : 2h 38mn
Bit rate                         : 1 093 Kbps
Width                            : 656 pixels
Height                           : 480 pixels
Display aspect ratio             : 4/3
Frame rate                       : 29.970 fps
Resolution                       : 24 bits
Colorimetry                      : 4.2.0
Scan type                        : Progressive
Bits/(Pixel*Frame)               : 0.116
Stream size                      : 1.21 GiB (89%)
Writing library                  : XviD 50

Audio
Format                           : MPEG Audio
Format version                   : Version 1
Format profile                   : Layer 3
Codec ID                         : 55
Codec ID/Hint                    : MP3
Duration                         : 2h 38mn
Bit rate mode                    : Constant
Bit rate                         : 128 Kbps
Minimum bit rate                 : 128 Kbps
Channel(s)                       : 2 channels
Sampling rate                    : 48.0 KHz
Resolution                       : 16 bits
Stream size                      : 145 MiB (10%)
Alignment                        : Aligned on interleaves
Interleave, duration             : 33 ms (1.00 video frame)
Interleave, preload duration     : 504 ms
Writing library                  : LAME3.98r
Encoding settings                : CBR
